<svg width="1680" height="524" viewBox="0 0 1440 524" fill="none" xmlns="http://www.w3.org/2000/svg">
<path d="M254.39 177.797L208.715 223.472C208.291 223.897 207.788 224.233 207.233 224.463C206.679 224.692 206.085 224.81 205.485 224.81C204.886 224.81 204.292 224.692 203.738 224.463C203.183 224.233 202.68 223.897 202.256 223.472L156.581 177.797C155.942 177.159 155.507 176.345 155.331 175.459C155.154 174.573 155.245 173.654 155.59 172.82C155.936 171.985 156.522 171.272 157.273 170.77C158.024 170.268 158.907 170 159.81 170H251.161C252.064 170 252.947 170.268 253.698 170.77C254.449 171.272 255.035 171.985 255.381 172.82C255.726 173.654 255.817 174.573 255.64 175.459C255.464 176.345 255.029 177.159 254.39 177.797Z" fill="#751F5D"/>
<path d="M275.653 206.323L210.119 271.857C209.511 272.466 208.788 272.948 207.993 273.278C207.198 273.607 206.346 273.777 205.485 273.777C204.625 273.777 203.773 273.607 202.978 273.278C202.183 272.948 201.46 272.466 200.852 271.857L135.318 206.323C134.401 205.407 133.777 204.239 133.524 202.968C133.271 201.697 133.401 200.379 133.897 199.182C134.393 197.984 135.233 196.96 136.311 196.24C137.388 195.52 138.655 195.136 139.951 195.136H271.019C272.316 195.136 273.583 195.52 274.66 196.24C275.738 196.96 276.578 197.984 277.074 199.182C277.57 200.379 277.7 201.697 277.447 202.968C277.194 204.239 276.57 205.407 275.653 206.323Z" fill="#AD318A"/>
<path d="M302.416 242.391L211.471 333.336C210.626 334.181 209.624 334.851 208.52 335.308C207.417 335.765 206.234 336 205.04 336C203.846 336 202.663 335.765 201.56 335.308C200.456 334.851 199.454 334.181 198.609 333.336L107.664 242.391C106.392 241.119 105.526 239.499 105.175 237.734C104.824 235.97 105.004 234.141 105.692 232.48C106.381 230.818 107.546 229.397 109.042 228.398C110.537 227.399 112.296 226.865 114.095 226.865H295.986C297.784 226.865 299.543 227.399 301.038 228.398C302.534 229.397 303.7 230.818 304.388 232.48C305.076 234.141 305.256 235.97 304.905 237.734C304.555 239.499 303.688 241.119 302.416 242.391Z" fill="#E612AA"/>
<path d="M397.227 330H352.127V196.909H398.137C411.351 196.909 422.702 199.574 432.19 204.902C441.721 210.188 449.043 217.791 454.155 227.712C459.267 237.634 461.823 249.504 461.823 263.325C461.823 277.188 459.245 289.102 454.09 299.067C448.978 309.031 441.591 316.678 431.93 322.007C422.312 327.336 410.744 330 397.227 330ZM376.237 309.14H396.058C405.329 309.14 413.062 307.45 419.257 304.071C425.453 300.648 430.11 295.558 433.229 288.799C436.349 281.997 437.908 273.506 437.908 263.325C437.908 253.143 436.349 244.695 433.229 237.98C430.11 231.222 425.496 226.174 419.387 222.838C413.322 219.459 405.784 217.77 396.772 217.77H376.237V309.14ZM603.655 263.455C603.655 277.795 600.969 290.077 595.596 300.301C590.268 310.483 582.989 318.281 573.761 323.696C564.577 329.112 554.157 331.82 542.503 331.82C530.849 331.82 520.408 329.112 511.18 323.696C501.995 318.238 494.717 310.418 489.345 300.237C484.016 290.012 481.351 277.751 481.351 263.455C481.351 249.114 484.016 236.854 489.345 226.673C494.717 216.448 501.995 208.628 511.18 203.213C520.408 197.797 530.849 195.089 542.503 195.089C554.157 195.089 564.577 197.797 573.761 203.213C582.989 208.628 590.268 216.448 595.596 226.673C600.969 236.854 603.655 249.114 603.655 263.455ZM579.415 263.455C579.415 253.36 577.834 244.847 574.671 237.915C571.552 230.94 567.219 225.676 561.674 222.124C556.128 218.528 549.738 216.73 542.503 216.73C535.268 216.73 528.878 218.528 523.332 222.124C517.787 225.676 513.433 230.94 510.27 237.915C507.151 244.847 505.591 253.36 505.591 263.455C505.591 273.549 507.151 282.084 510.27 289.059C513.433 295.991 517.787 301.255 523.332 304.85C528.878 308.403 535.268 310.179 542.503 310.179C549.738 310.179 556.128 308.403 561.674 304.85C567.219 301.255 571.552 295.991 574.671 289.059C577.834 282.084 579.415 273.549 579.415 263.455ZM651.062 330L613.5 196.909H639.429L663.409 294.713H664.644L690.248 196.909H713.838L739.507 294.778H740.677L764.657 196.909H790.586L753.025 330H729.24L702.596 236.615H701.556L674.847 330H651.062ZM916.675 196.909V330H895.23L832.518 239.345H831.414V330H807.304V196.909H828.879L891.525 287.629H892.695V196.909H916.675Z" fill="#FDAD13"/>
<path d="M942.945 330V196.909H967.055V309.789H1025.67V330H942.945ZM1070.71 196.909V330H1046.6V196.909H1070.71ZM1169.14 233.496C1168.54 227.821 1165.98 223.402 1161.48 220.239C1157.01 217.076 1151.21 215.495 1144.06 215.495C1139.03 215.495 1134.72 216.253 1131.13 217.77C1127.53 219.286 1124.78 221.344 1122.87 223.943C1120.97 226.543 1119.99 229.51 1119.95 232.846C1119.95 235.619 1120.58 238.023 1121.84 240.06C1123.13 242.096 1124.89 243.829 1127.1 245.259C1129.31 246.645 1131.76 247.815 1134.44 248.768C1137.13 249.721 1139.84 250.522 1142.57 251.172L1155.04 254.292C1160.07 255.461 1164.9 257.043 1169.53 259.036C1174.21 261.028 1178.39 263.541 1182.08 266.574C1185.8 269.607 1188.75 273.267 1190.92 277.556C1193.08 281.846 1194.16 286.871 1194.16 292.633C1194.16 300.431 1192.17 307.298 1188.19 313.234C1184.2 319.126 1178.44 323.74 1170.9 327.076C1163.4 330.368 1154.33 332.015 1143.67 332.015C1133.32 332.015 1124.33 330.412 1116.7 327.206C1109.12 324 1103.18 319.321 1098.9 313.169C1094.65 307.017 1092.35 299.522 1092.01 290.684H1115.73C1116.07 295.319 1117.5 299.175 1120.02 302.251C1122.53 305.327 1125.8 307.623 1129.83 309.14C1133.9 310.656 1138.45 311.414 1143.48 311.414C1148.72 311.414 1153.31 310.634 1157.25 309.075C1161.24 307.472 1164.36 305.262 1166.61 302.446C1168.86 299.587 1170.01 296.251 1170.05 292.438C1170.01 288.972 1168.99 286.113 1167 283.86C1165.01 281.564 1162.21 279.658 1158.62 278.141C1155.06 276.582 1150.91 275.195 1146.14 273.982L1131 270.083C1120.04 267.267 1111.37 263 1105 257.281C1098.68 251.519 1095.52 243.872 1095.52 234.341C1095.52 226.499 1097.64 219.632 1101.88 213.74C1106.17 207.848 1112 203.278 1119.37 200.028C1126.73 196.736 1135.07 195.089 1144.39 195.089C1153.83 195.089 1162.1 196.736 1169.21 200.028C1176.36 203.278 1181.97 207.805 1186.04 213.61C1190.11 219.373 1192.21 226.001 1192.34 233.496H1169.14ZM1209.81 217.12V196.909H1316V217.12H1274.86V330H1250.95V217.12H1209.81Z" fill="white"/>
</svg>
