<svg width="1200" height="600" viewBox="0 0 1440 1024" fill="none" xmlns="http://www.w3.org/2000/svg">
<path d="M293.39 436.797L247.715 482.472C247.291 482.897 246.788 483.233 246.233 483.463C245.679 483.692 245.085 483.81 244.485 483.81C243.886 483.81 243.292 483.692 242.738 483.463C242.183 483.233 241.68 482.897 241.256 482.472L195.581 436.797C194.942 436.159 194.507 435.345 194.331 434.459C194.154 433.573 194.245 432.654 194.59 431.82C194.936 430.985 195.522 430.272 196.273 429.77C197.024 429.268 197.907 429 198.81 429H290.161C291.064 429 291.947 429.268 292.698 429.77C293.449 430.272 294.035 430.985 294.381 431.82C294.726 432.654 294.817 433.573 294.64 434.459C294.464 435.345 294.029 436.159 293.39 436.797Z" fill="#751F5D"/>
<path d="M314.653 465.323L249.119 530.857C248.511 531.466 247.788 531.948 246.993 532.278C246.198 532.607 245.346 532.777 244.485 532.777C243.625 532.777 242.773 532.607 241.978 532.278C241.183 531.948 240.46 531.466 239.852 530.857L174.318 465.323C173.401 464.407 172.777 463.239 172.524 461.968C172.271 460.697 172.401 459.379 172.897 458.182C173.393 456.984 174.233 455.96 175.311 455.24C176.388 454.52 177.655 454.136 178.951 454.136H310.019C311.316 454.136 312.583 454.52 313.66 455.24C314.738 455.96 315.578 456.984 316.074 458.182C316.57 459.379 316.7 460.697 316.447 461.968C316.194 463.239 315.57 464.407 314.653 465.323Z" fill="#AD318A"/>
<path d="M341.416 501.391L250.471 592.336C249.626 593.181 248.624 593.851 247.52 594.308C246.417 594.765 245.234 595 244.04 595C242.846 595 241.663 594.765 240.56 594.308C239.456 593.851 238.454 593.181 237.609 592.336L146.664 501.391C145.392 500.119 144.526 498.499 144.175 496.734C143.824 494.97 144.004 493.141 144.692 491.48C145.381 489.818 146.546 488.397 148.042 487.398C149.537 486.399 151.296 485.865 153.095 485.865H334.986C336.784 485.865 338.543 486.399 340.038 487.398C341.534 488.397 342.7 489.818 343.388 491.48C344.076 493.141 344.256 494.97 343.905 496.734C343.555 498.499 342.688 500.119 341.416 501.391Z" fill="#E612AA"/>
<path d="M431.773 576H390.123V453.091H432.613C444.816 453.091 455.298 455.551 464.06 460.473C472.862 465.354 479.624 472.375 484.345 481.538C489.066 490.7 491.427 501.662 491.427 514.425C491.427 527.228 489.046 538.231 484.285 547.433C479.564 556.635 472.742 563.697 463.82 568.618C454.938 573.539 444.256 576 431.773 576ZM412.388 556.735H430.692C439.254 556.735 446.396 555.175 452.118 552.054C457.839 548.894 462.14 544.192 465.021 537.951C467.901 531.67 469.342 523.828 469.342 514.425C469.342 505.023 467.901 497.221 465.021 491.02C462.14 484.778 457.879 480.117 452.238 477.037C446.636 473.916 439.675 472.355 431.353 472.355H412.388V556.735ZM622.408 514.545C622.408 527.789 619.927 539.131 614.966 548.574C610.045 557.976 603.323 565.177 594.801 570.179C586.319 575.18 576.697 577.68 565.934 577.68C555.172 577.68 545.53 575.18 537.008 570.179C528.526 565.137 521.804 557.916 516.843 548.513C511.922 539.071 509.461 527.749 509.461 514.545C509.461 501.302 511.922 489.98 516.843 480.577C521.804 471.135 528.526 463.913 537.008 458.912C545.53 453.911 555.172 451.411 565.934 451.411C576.697 451.411 586.319 453.911 594.801 458.912C603.323 463.913 610.045 471.135 614.966 480.577C619.927 489.98 622.408 501.302 622.408 514.545ZM600.023 514.545C600.023 505.223 598.562 497.361 595.642 490.96C592.761 484.518 588.76 479.657 583.639 476.376C578.517 473.056 572.616 471.395 565.934 471.395C559.253 471.395 553.352 473.056 548.23 476.376C543.109 479.657 539.088 484.518 536.167 490.96C533.287 497.361 531.846 505.223 531.846 514.545C531.846 523.868 533.287 531.75 536.167 538.191C539.088 544.593 543.109 549.454 548.23 552.775C553.352 556.055 559.253 557.696 565.934 557.696C572.616 557.696 578.517 556.055 583.639 552.775C588.76 549.454 592.761 544.593 595.642 538.191C598.562 531.75 600.023 523.868 600.023 514.545ZM666.188 576L631.5 453.091H655.446L677.591 543.412H678.731L702.377 453.091H724.162L747.868 543.472H748.948L771.093 453.091H795.039L760.351 576H738.385L713.779 489.76H712.819L688.153 576H666.188ZM911.481 453.091V576H891.677L833.763 492.28H832.743V576H810.477V453.091H830.402L888.256 536.871H889.336V453.091H911.481Z" fill="#FDAD13"/>
<path d="M935.742 576V453.091H958.007V557.336H1012.14V576H935.742ZM1053.73 453.091V576H1031.46V453.091H1053.73ZM1144.64 486.879C1144.08 481.638 1141.72 477.557 1137.55 474.636C1133.43 471.715 1128.07 470.255 1121.47 470.255C1116.83 470.255 1112.85 470.955 1109.53 472.355C1106.21 473.756 1103.67 475.656 1101.91 478.057C1100.15 480.457 1099.25 483.198 1099.21 486.279C1099.21 488.839 1099.79 491.06 1100.95 492.94C1102.15 494.821 1103.77 496.421 1105.81 497.741C1107.85 499.022 1110.11 500.102 1112.59 500.982C1115.07 501.862 1117.57 502.603 1120.09 503.203L1131.61 506.083C1136.25 507.164 1140.72 508.624 1145 510.464C1149.32 512.305 1153.18 514.625 1156.58 517.426C1160.02 520.227 1162.74 523.608 1164.74 527.569C1166.74 531.529 1167.74 536.171 1167.74 541.492C1167.74 548.694 1165.9 555.035 1162.22 560.516C1158.54 565.958 1153.22 570.219 1146.26 573.299C1139.34 576.34 1130.95 577.86 1121.11 577.86C1111.55 577.86 1103.25 576.38 1096.2 573.419C1089.2 570.459 1083.72 566.138 1079.76 560.456C1075.84 554.775 1073.72 547.853 1073.4 539.691H1095.3C1095.62 543.972 1096.95 547.533 1099.27 550.374C1101.59 553.215 1104.61 555.335 1108.33 556.735C1112.09 558.136 1116.29 558.836 1120.93 558.836C1125.77 558.836 1130.01 558.116 1133.65 556.675C1137.33 555.195 1140.22 553.155 1142.3 550.554C1144.38 547.913 1145.44 544.833 1145.48 541.312C1145.44 538.111 1144.5 535.47 1142.66 533.39C1140.82 531.269 1138.23 529.509 1134.91 528.109C1131.63 526.668 1127.79 525.388 1123.39 524.268L1109.41 520.667C1099.29 518.066 1091.28 514.125 1085.4 508.844C1079.56 503.523 1076.64 496.461 1076.64 487.659C1076.64 480.417 1078.6 474.076 1082.52 468.635C1086.48 463.193 1091.86 458.972 1098.67 455.972C1105.47 452.931 1113.17 451.411 1121.77 451.411C1130.49 451.411 1138.13 452.931 1144.7 455.972C1151.3 458.972 1156.48 463.153 1160.24 468.515C1164 473.836 1165.94 479.957 1166.06 486.879H1144.64ZM1182.19 471.755V453.091H1280.25V471.755H1242.26V576H1220.18V471.755H1182.19Z" fill="white"/>
</svg>
