<svg xmlns="http://www.w3.org/2000/svg" xmlns:xlink="http://www.w3.org/1999/xlink" version="1.1" id="Layer_1" x="0px" y="0px" viewBox="0 0 1080 1080" enable-background="new 0 0 1080 1080" xml:space="preserve">
<path opacity="0.05" fill="#3FC9EE" d="M863.571,686.403c0,0,50.756-98.305,0-89.44c-50.756,8.865-155.623-8.25-111.584-86.557  s43.219-138.893-42.506-114.075c-85.725,24.818-125.142,33.866-153.61-33.434c-28.468-67.3-146.721-97.228-162.05-14.013  s-7.956,125.2-93.762,134.5c-85.806,9.301-110.123,60.839-68.287,93.032s-54.795,105.924,41.583,124.239  S863.571,686.403,863.571,686.403z"/>
<ellipse fill="#F4F4F4" cx="549.119" cy="711.214" rx="349.83" ry="56.558"/>
<g>
	<g>
		<g>
			<g>
				<path fill="#EDEDED" d="M313.901,635.516h363.802c2.956,0,5.375-2.419,5.375-5.375V363.189c0-2.956-2.419-5.375-5.375-5.375      H313.901c-2.956,0-5.375,2.419-5.375,5.375v266.953C308.526,633.097,310.945,635.516,313.901,635.516z"/>
				<g>
					<path fill="#FFFFFF" d="M677.669,357.814H313.935c-2.975,0-5.409,2.434-5.409,5.409v13.127h374.551v-13.127       C683.077,360.248,680.644,357.814,677.669,357.814z"/>
				</g>
			</g>
			<g>
				<path fill="#C9C9C9" d="M330.01,366.978c-0.009,2.244-1.836,4.056-4.08,4.047c-2.244-0.009-4.056-1.836-4.047-4.08      c0.009-2.244,1.836-4.056,4.08-4.047C328.207,362.907,330.019,364.734,330.01,366.978z"/>
				<path fill="#C9C9C9" d="M342.652,367.03c-0.009,2.244-1.836,4.056-4.08,4.047c-2.244-0.009-4.056-1.836-4.047-4.08      c0.009-2.244,1.836-4.056,4.08-4.047C340.85,362.959,342.661,364.786,342.652,367.03z"/>
				<path fill="#C9C9C9" d="M355.295,367.082c-0.009,2.244-1.836,4.056-4.08,4.047c-2.244-0.009-4.056-1.836-4.047-4.08      c0.009-2.244,1.836-4.056,4.08-4.047C353.492,363.011,355.304,364.838,355.295,367.082z"/>
			</g>
		</g>
	</g>
	<g>
		<g>
			<line fill="#FFFFFF" x1="652.599" y1="609.768" x2="652.599" y2="616.026"/>
			<line fill="#FFFFFF" x1="337.679" y1="616.026" x2="337.679" y2="609.768"/>
		</g>
	</g>
</g>
<g>
	<g>
		<g>
			<g>
				<g>
					<g>
						<path fill="#ECE8EC" d="M771.924,714.478c0,0,10.844,1.853,22.495,1.853c10.799,0,21.219-1.853,21.219-1.853l-0.847-1.88        c-3.723-8.265-17.811-5.05-21.01-13.579h0c-2.665,8.529-17.287,5.314-21.01,13.579L771.924,714.478z"/>
					</g>
					<g>
						
							<rect x="791.115" y="650.335" transform="matrix(-1 -1.224647e-16 1.224647e-16 -1 1588.095 1355.5781)" fill="#ECE8EC" width="5.864" height="54.908"/>
					</g>
					<g>
						<polygon fill="#F5D09F" points="792.784,700.742 790.226,695.146 784.619,697.211 786.175,702.968       "/>
					</g>
					<g>
						<g>
							<path fill="#0B4870" d="M792.774,700.656l1.346,4.572l-5.928,1.873c0,0-13.382,5.618-15.875,3.013         c-1.142-1.193,3.214-2.371,6.01-4.222c2.796-1.851,7.188-4.465,7.188-4.465S789.372,701.572,792.774,700.656z"/>
						</g>
					</g>
					<g>
						<polygon fill="#F5D09F" points="763.162,709.011 762.289,702.921 756.327,703.318 756.194,709.28       "/>
					</g>
					<g>
						<g>
							<path fill="#0B4870" d="M763.177,708.926v4.766l-6.216,0.123c0,0-14.423,1.611-16.08-1.591         c-0.759-1.467,3.753-1.367,6.958-2.353c3.205-0.986,8.156-2.254,8.156-2.254S759.655,708.844,763.177,708.926z"/>
						</g>
					</g>
					<g>
						<g>
							<path fill="#E9BB88" d="M709.261,604.022l8.237-2.733l7.292,1.846c4.105-1.067,5.471-1.008,13.877-3.169         c7.098-1.825,15.249-5.465,15.249-5.465l6.042-10.129c3.909,0.355,12.121,4.62,12.121,4.62s-11.232,15.282-14.431,16.348         c-3.198,1.066-24.762,3.695-32.983,2.752c-2.589-0.297-7.656-3.038-7.656-3.038l-6.5,1.08l-5.068,3.421l-0.885-0.732         l2.016-2.208L709.261,604.022z"/>
						</g>
						<g>
							<path fill="#FFBE55" d="M766.189,565.084c0,0,10.473,1.753,10.296,11.171c-0.116,6.134-8.529,17.592-8.529,17.592         s-4.62-6.397-10.306-8.174c0,0,3.693-10.834,4.823-14.222C763.892,567.192,766.189,565.084,766.189,565.084z"/>
						</g>
					</g>
					<g>
						
							<rect x="783.652" y="648.736" transform="matrix(-1 -1.224647e-16 1.224647e-16 -1 1588.095 1308.6663)" fill="#ECE8EC" width="20.791" height="11.195"/>
					</g>
					<g>
						<path fill="#ECE8EC" d="M786.438,605.195c-1.023-13.542-1.753-27.105-2.205-40.678c12.852-5.721,41.518-3.168,44.199,5.321        c2.845,9.008-7.996,34.651-7.996,44.246c0,9.596,3.732,16.526,4.265,20.79s-2.132,7.463-2.132,7.463h-32.862        C788.87,629.942,787.372,617.564,786.438,605.195z"/>
					</g>
					<g>
						<path fill="#FFFFFF" d="M786.438,605.195c-1.066-14.114-1.811-28.249-2.258-42.395c14.123-3.301,36.565-0.425,38.921,7.038        c2.845,9.008-7.996,34.651-7.996,44.246c0,9.596,3.732,16.526,4.265,20.79c0.533,4.265-2.132,7.463-2.132,7.463h-27.531        C788.87,629.942,787.372,617.564,786.438,605.195z"/>
					</g>
					<g>
						<path fill="#FFFFFF" d="M760.729,652.467h54.753c3.913,0,7.086-3.172,7.086-7.086v-3.043h-61.838V652.467z"/>
					</g>
					<g>
						<g>
							<path fill="#0B4870" d="M772.457,619.06c0,0-29.583,17.576-31.342,24.833c-2.099,8.66,12.089,59.94,12.089,59.94         c3.346,2.251,9.549,1.491,11.831-0.557c0,0-11.413-43.879-10.17-46.811c3.044-7.175,28.965-15.726,37.139-23.545         c8.174-7.819,8.885-15.282,8.885-15.282L772.457,619.06z"/>
						</g>
					</g>
					<g>
						<g>
							<path fill="#0B4870" d="M806.277,611.2c0,0,10.077,21.01,1.014,29.539c-4.149,3.905-28.97,0.355-30.391,4.265l14.985,49.783         c0,0-2.643,1.607-7.974,4.272c0,0-31.178-54.944-27.979-62.052c3.199-7.108,24.7-11.195,25.766-15.104         c1.066-3.909,1.777-10.306,1.777-10.306L806.277,611.2z"/>
						</g>
					</g>
					<g>
						<path fill="#F5D09F" d="M763.531,554.212c0.643,2.44,1.787,5.127,4.182,5.921c2.201,0.73,4.539-0.448,6.532-1.635        c2.344-1.396,4.721-2.927,6.22-5.206c2.275-3.459,4.115-7.684,3.86-11.816c-0.09-1.461-2.228-3.252-3.115-4.416        c-0.626-0.822-1.561-1.346-2.494-1.79c-2.216-1.055-4.581-1.794-7.003-2.189c-4.044-0.659-8.54,0.245-9.349,4.686        C761.403,543.053,762.176,549.071,763.531,554.212z"/>
					</g>
					<g>
						<path fill="#F5D09F" d="M792.049,560.863c0,0-0.045-0.798-2.888-1.509c-0.816-0.204-1.836-0.206-2.485-0.773        c-2.301-2.012-4.415-5.757-5.199-8.516c-0.116-0.409-0.23-0.842-0.122-1.253c-1.922,1.629-3.779,3.334-5.565,5.109        c-0.612,0.608-4.313,0.264-3.865,1.088c0.125,0.231,1.068,2.387,1.996,4.476c-1.795,1.176-3.772,2.712-3.772,2.712        l-2.488,13.86l7.286,4.087c0,0,8.174-1.777,13.505-4.62C793.781,572.682,792.049,560.863,792.049,560.863z"/>
					</g>
					<g>
						<path fill="#FFBE55" d="M789.161,559.354c0,0-2.132,3.909-7.463,6.219c-5.331,2.31-10.129-4.62-10.129-4.62l-5.379,4.13        c0,0-0.485,18.894,1.826,29.2c2.31,10.307,4.442,24.777,4.442,24.777s2.383,3.493,5.428,3.699        c3.725,0.252,8.856-2.665,16.962-1.212c8.994,1.613,15.689,0.198,15.689,0.198s-6.918-33.808-8.518-40.56        c-1.599-6.753-5.75-20.587-5.75-20.587S792.715,559.71,789.161,559.354z"/>
					</g>
					<g>
						<g>
							<path fill="#ECE8EC" d="M694.719,609.689h31.403v-2.684h-33.28v0.806C692.841,608.848,693.682,609.689,694.719,609.689z"/>
						</g>
						<g>
							<path fill="#FFBE55" d="M704.861,576.424c0.925,0,1.751,0.58,2.066,1.449l10.568,29.169l-0.652,0.272l0.172,0.509         l-24.174-0.817l-10.289-27.623c-0.535-1.436,0.528-2.966,2.061-2.965L704.861,576.424z"/>
						</g>
						<g>
							<path fill="#FFFFFF" d="M696.592,593.693c0.717,2.752,2.123,4.947,3.14,4.902c1.017-0.045,1.26-2.312,0.543-5.065         c-0.717-2.752-2.123-4.947-3.14-4.902C696.118,588.673,695.875,590.941,696.592,593.693z"/>
						</g>
					</g>
					<g>
						<g>
							<g>
								<path fill="#0B4870" d="M769.507,538.69c-3.458-0.228-7.095-0.248-10.118-1.822c-1.469-0.765-2.788-1.986-3.069-3.527          s0.847-3.328,2.528-3.439c0.346-0.023,0.723,0.016,1.013-0.162c0.371-0.227,0.432-0.698,0.488-1.107          c0.376-2.742,2.682-5.507,5.661-5.439c2.43,0.055,4.691,1.925,7.044,1.359c0.724-0.174,1.359-0.567,2.023-0.887          c1.996-0.964,4.346-1.283,6.556-0.891c2.332,0.414,4.805,2.254,4.234,4.391c-0.191,0.714-0.702,1.335-0.839,2.06          c-0.487,2.585,3.632,3.874,4.446,6.387c0.741,2.287-1.521,4.565-1.347,6.947c0.096,1.324,0.869,2.88-0.139,3.822          c-0.538,0.503-1.456,0.628-1.817,1.252c-0.491,0.85,0.423,1.816,0.504,2.778c0.099,1.193-1.262,2.192-2.547,2.091          c-1.285-0.101-2.354-1.051-2.859-2.151c-0.506-1.1-0.543-2.333-0.503-3.528c2.176-0.612,3.515-4.197,1.468-5.113          c-1.092-0.489-2.253,0.697-2.667,1.703C777.405,539.982,773.954,538.69,769.507,538.69z"/>
							</g>
						</g>
						<g>
							<g>
								<path fill="#0B4870" d="M778.34,544.209c-0.718,1.654-1.437,3.308-2.155,4.962c-0.288,0.663-0.593,1.35-1.143,1.818          c-0.84,0.716-2.069,0.762-3.151,0.543c-1.082-0.219-3.15-0.814-4.25-0.72c-2.513,0.215-4.363,1.419-4.523,1.723          c-0.323,0.614,0.13,1.57,0.14,2.264c0.01,0.728-0.106,1.478-0.481,2.103c-0.251,0.418-0.606,0.762-0.94,1.117          c-0.892,0.95-1.696,2.134-1.623,3.435c0.1,1.779,1.739,3.022,3.223,4.008c0.95,0.631,1.934,1.276,3.056,1.483          c0.752,0.139,1.525,0.072,2.287,0.004c1.588-0.141,3.19-0.284,4.715-0.752c1.524-0.468,2.985-1.292,3.943-2.566          c0.818-1.088,1.218-2.425,1.599-3.732c0.616-2.114,1.223-4.257,1.299-6.457c0.072-2.062-0.326-4.108-0.535-6.161          c-0.182-1.792-0.22-3.598-0.115-5.395c0.013-0.219,0.037-0.749-0.287-0.794c-0.358-0.05-0.233,0.489-0.282,0.713          C778.932,542.648,778.685,543.414,778.34,544.209z"/>
							</g>
						</g>
						<g>
							<path fill="#F5D09F" d="M765.085,553.646c-0.341,0.738-0.166,1.682,0.417,2.249c0.263,0.256,0.623,0.441,0.987,0.399         s0.705-0.366,0.675-0.731c-0.011-0.135-0.065-0.283,0.007-0.397c0.07-0.111,0.222-0.13,0.353-0.137         c0.491-0.026,1.09,0.005,1.32,0.439c0.07,0.132,0.094,0.286,0.173,0.412c0.189,0.301,0.609,0.338,0.963,0.309         c0.51-0.042,1.014-0.154,1.494-0.333c0.244-0.091,0.488-0.203,0.666-0.393c0.178-0.19,0.277-0.472,0.189-0.716         c-0.074-0.203-0.257-0.342-0.433-0.467C770.36,553.187,766.322,550.97,765.085,553.646z"/>
						</g>
					</g>
				</g>
				<g>
					<path fill="#FFFFFF" d="M787.548,645.371c0,0-1.024-28.682,5.378-30.576c6.403-1.894,20.489-1.353,20.489-1.353l1.281,5.141       c0,0-18.44-1.353-21.002,2.165c-2.561,3.518,0,24.893,0,24.893L787.548,645.371z"/>
				</g>
			</g>
			<g>
				<g>
					<path fill="#F5D09F" d="M735.957,603.129l8.237-2.733l7.292,1.846c4.105-1.067,5.471-1.008,13.878-3.169       c7.098-1.825,15.249-5.465,15.249-5.465l9.249-13.82c3.909,0.355,8.914,8.312,8.914,8.312s-11.232,15.282-14.431,16.348       c-3.198,1.066-27.598,3.896-35.818,2.953c-2.589-0.297-7.168-3.131-7.168-3.131l-4.152,0.972l-5.068,3.421l-0.885-0.732       l2.016-2.208L735.957,603.129z"/>
				</g>
				<g>
					<path fill="#FFBE55" d="M796.269,560.598c0,0,11.017,1.777,10.839,11.195c-0.116,6.134-8.529,17.592-8.529,17.592       s-4.62-6.397-10.306-8.174c0,0,4.442-8.707,4.798-12.261C793.426,565.396,796.269,560.598,796.269,560.598z"/>
				</g>
				<g>
					<g>
						<path fill="#FFFFFF" d="M719.373,609.689h31.403v-2.684h-33.28v0.806C717.495,608.848,718.336,609.689,719.373,609.689z"/>
					</g>
					<g>
						
							<rect x="736.576" y="607.858" transform="matrix(-1 -1.224647e-16 1.224647e-16 -1 1484.2451 1216.5488)" fill="#ECE8EC" width="11.093" height="0.832"/>
					</g>
					<g>
						
							<rect x="733.271" y="607.858" transform="matrix(-1 -1.224647e-16 1.224647e-16 -1 1468.183 1216.5488)" fill="#ECE8EC" width="1.641" height="0.832"/>
					</g>
				</g>
			</g>
		</g>
		<g>
			<g>
				<polygon fill="#FFFFFF" points="785.659,717.776 787.701,717.776 764.693,617.678 760.361,617.678     "/>
			</g>
			<g>
				<polygon fill="#FFFFFF" points="723.316,716.729 725.359,716.729 740.161,617.678 735.828,617.678     "/>
			</g>
			<g>
				<polygon fill="#FFFFFF" points="692.313,717.334 694.355,717.334 678.09,617.678 673.757,617.678     "/>
			</g>
			<g>
				<polygon fill="#FFFFFF" points="634.993,716.275 637.036,716.275 656.612,617.678 652.279,617.678     "/>
			</g>
			<g>
				
					<rect x="669.012" y="613.203" transform="matrix(-1 -1.224647e-16 1.224647e-16 -1 1445.9496 1230.8817)" fill="#7DADDF" width="107.926" height="4.475"/>
			</g>
			<g>
				
					<rect x="634.403" y="613.203" transform="matrix(-1 -1.224647e-16 1.224647e-16 -1 1368.3325 1230.8817)" fill="#93BCEB" width="99.526" height="4.475"/>
			</g>
			<g>
				
					<rect x="671.412" y="609.46" transform="matrix(-1 -1.224647e-16 1.224647e-16 -1 1458.2513 1224.9092)" fill="#93BCEB" width="115.428" height="5.989"/>
			</g>
			<g>
				
					<rect x="619.27" y="609.46" transform="matrix(-1 -1.224647e-16 1.224647e-16 -1 1345.5692 1224.9092)" fill="#CCE1F7" width="107.029" height="5.989"/>
			</g>
		</g>
	</g>
</g>
<g>
	<path fill="#FFBE55" d="M475.362,466.977c-6.125-10.495-14.434-18.804-24.928-24.929c-10.496-6.125-21.954-9.187-34.383-9.187   c-12.427,0-23.889,3.063-34.383,9.187c-10.495,6.124-18.803,14.434-24.929,24.929c-6.124,10.495-9.187,21.955-9.187,34.381   c0,14.926,4.355,28.348,13.066,40.269c8.711,11.922,19.964,20.172,33.758,24.75c1.606,0.298,2.794,0.088,3.567-0.624   c0.773-0.713,1.159-1.606,1.159-2.675c0-0.178-0.015-1.783-0.045-4.816c-0.031-3.033-0.045-5.679-0.045-7.937l-2.051,0.355   c-1.308,0.24-2.958,0.341-4.95,0.312c-1.991-0.028-4.058-0.237-6.198-0.624c-2.141-0.385-4.133-1.276-5.976-2.674   c-1.842-1.397-3.15-3.226-3.924-5.484l-0.892-2.052c-0.594-1.366-1.53-2.884-2.809-4.548c-1.279-1.665-2.572-2.794-3.88-3.389   l-0.624-0.447c-0.416-0.297-0.802-0.655-1.159-1.071c-0.357-0.416-0.624-0.832-0.802-1.249c-0.179-0.417-0.031-0.759,0.446-1.027   c0.476-0.268,1.337-0.399,2.587-0.399l1.783,0.266c1.189,0.238,2.66,0.95,4.415,2.14c1.754,1.189,3.195,2.735,4.325,4.636   c1.368,2.439,3.017,4.297,4.95,5.575c1.932,1.279,3.88,1.917,5.841,1.917s3.656-0.149,5.084-0.445   c1.426-0.297,2.764-0.744,4.013-1.339c0.535-3.986,1.992-7.047,4.37-9.187c-3.389-0.356-6.436-0.893-9.142-1.606   c-2.705-0.714-5.5-1.873-8.383-3.48c-2.885-1.605-5.278-3.598-7.18-5.975c-1.902-2.379-3.464-5.501-4.682-9.365   c-1.219-3.866-1.828-8.325-1.828-13.379c0-7.196,2.349-13.319,7.047-18.374c-2.201-5.41-1.993-11.475,0.624-18.194   c1.724-0.536,4.282-0.134,7.67,1.204c3.389,1.338,5.871,2.484,7.447,3.434c1.576,0.95,2.839,1.755,3.791,2.408   c5.531-1.545,11.239-2.318,17.125-2.318s11.595,0.773,17.126,2.318l3.389-2.14c2.318-1.428,5.054-2.736,8.204-3.925   c3.151-1.189,5.561-1.516,7.227-0.98c2.675,6.719,2.913,12.784,0.712,18.194c4.697,5.055,7.047,11.18,7.047,18.374   c0,5.054-0.612,9.527-1.828,13.422c-1.218,3.896-2.793,7.015-4.725,9.365c-1.934,2.349-4.343,4.327-7.226,5.931   c-2.884,1.606-5.68,2.765-8.385,3.479c-2.706,0.714-5.753,1.251-9.142,1.608c3.091,2.675,4.637,6.897,4.637,12.664v18.818   c0,1.069,0.372,1.962,1.116,2.675c0.743,0.712,1.917,0.922,3.523,0.623c13.796-4.578,25.049-12.827,33.76-24.75   c8.709-11.921,13.066-25.343,13.066-40.269C484.548,488.931,481.484,477.472,475.362,466.977z"/>
</g>
<g>
	<path fill="#CCE1F7" d="M335.468,695.016h-76.544c-2.038,0-3.69-1.652-3.69-3.69v-91.953c0-2.038,1.652-3.69,3.69-3.69h76.544   c2.038,0,3.69,1.652,3.69,3.69v91.953C339.158,693.364,337.506,695.016,335.468,695.016z"/>
	<g>
		<rect x="273.608" y="608.611" fill="#FFFFFF" width="7.88" height="3.248"/>
		<rect x="285.842" y="608.611" fill="#FFFFFF" width="14.217" height="3.248"/>
		<rect x="279.02" y="615.513" fill="#FFFFFF" width="29.53" height="3.248"/>
		<rect x="312.904" y="615.513" fill="#3FC9EE" width="7.88" height="3.248"/>
		<rect x="279.02" y="622.414" fill="#FFFFFF" width="29.53" height="3.248"/>
		<rect x="312.904" y="622.414" fill="#3FC9EE" width="7.88" height="3.248"/>
		<rect x="279.02" y="629.316" fill="#FFFFFF" width="29.53" height="3.248"/>
		<rect x="312.904" y="629.316" fill="#3FC9EE" width="7.88" height="3.248"/>
		<rect x="273.608" y="636.218" fill="#FFFFFF" width="7.88" height="3.248"/>
		<rect x="285.842" y="636.218" fill="#FFFFFF" width="14.217" height="3.248"/>
		<rect x="279.02" y="643.12" fill="#3FC9EE" width="14.765" height="3.248"/>
		<rect x="298.139" y="643.12" fill="#FFFFFF" width="22.645" height="3.248"/>
		<rect x="279.02" y="650.021" fill="#3FC9EE" width="14.765" height="3.248"/>
		<rect x="298.139" y="650.021" fill="#FFFFFF" width="22.645" height="3.248"/>
		<rect x="279.02" y="656.923" fill="#3FC9EE" width="14.765" height="3.248"/>
		<rect x="298.139" y="656.923" fill="#FFFFFF" width="22.645" height="3.248"/>
	</g>
	<g>
		<polygon fill="#FFBE55" points="345.145,707.62 249.247,707.62 249.247,640.687 297.196,680.998 345.145,640.687   "/>
		<polygon opacity="0.81" fill="#FFBE55" points="249.247,707.62 297.196,651.907 345.145,707.62   "/>
	</g>
</g>
<path fill="#CCE1F7" d="M287.522,438.585h-28.335c-8.582,0-15.538,6.957-15.538,15.539v20.108c0,6.805,4.381,12.573,10.471,14.676  l0.497,10.777l13.96-9.915h18.945c8.582,0,15.538-6.957,15.538-15.539l0-20.108C303.061,445.541,296.104,438.585,287.522,438.585z"/>
<path fill="#FFFFFF" d="M321.752,410.084H284.37c-11.322,0-20.5,9.178-20.5,20.5v26.529c0,11.322,9.178,20.5,20.5,20.5h24.994  l18.417,13.08l0.656-14.217c8.035-2.775,13.815-10.385,13.815-19.362v-26.529C342.252,419.262,333.074,410.084,321.752,410.084z"/>
<g>
	<path fill="#FFBE55" d="M291.138,443.064l-7.021,2.487l7.021,2.487v3.213l-10.85-4.005v-3.389l10.85-4.005V443.064z"/>
	<path fill="#FFBE55" d="M305.267,434.723h3.719l-7.263,20.731h-3.719L305.267,434.723z"/>
	<path fill="#FFBE55" d="M326.481,443.856v3.389l-10.85,4.005v-3.213l7.021-2.487l-7.021-2.487v-3.213L326.481,443.856z"/>
</g>
<g>
	<rect x="495.802" y="428.907" fill="#FFBE55" width="26.191" height="9.588"/>
	<rect x="536.463" y="428.907" fill="#FFBE55" width="47.253" height="9.588"/>
	<rect x="513.791" y="449.282" fill="#FFFFFF" width="98.147" height="9.588"/>
	<rect x="626.408" y="449.282" fill="#3FC9EE" width="26.191" height="9.588"/>
	<rect x="513.791" y="469.657" fill="#FFFFFF" width="98.147" height="9.588"/>
	<rect x="626.408" y="469.657" fill="#3FC9EE" width="26.191" height="9.588"/>
	<rect x="513.791" y="490.032" fill="#FFFFFF" width="98.147" height="9.588"/>
	<rect x="626.408" y="490.032" fill="#3FC9EE" width="26.191" height="9.588"/>
	<rect x="495.802" y="510.406" fill="#FFBE55" width="26.191" height="9.588"/>
	<rect x="536.463" y="510.406" fill="#FFBE55" width="47.253" height="9.588"/>
	<rect x="513.791" y="530.781" fill="#3FC9EE" width="49.073" height="9.588"/>
	<rect x="577.335" y="530.781" fill="#FFFFFF" width="75.264" height="9.588"/>
	<rect x="513.791" y="551.156" fill="#3FC9EE" width="49.073" height="9.588"/>
	<rect x="577.335" y="551.156" fill="#FFFFFF" width="75.264" height="9.588"/>
	<rect x="513.791" y="571.531" fill="#3FC9EE" width="49.073" height="9.588"/>
	<rect x="577.335" y="571.531" fill="#FFFFFF" width="75.264" height="9.588"/>
</g>
</svg>